<svg width="18" height="27" viewBox="0 0 18 27" fill="none" xmlns="http://www.w3.org/2000/svg">
<path d="M9.39902 0.911261L9.27769 0.745912L9.15687 0.911635L3.34679 8.88122L3.32784 8.90721L3.32122 8.93868L0.853218 20.6617L0.831249 20.766L0.922591 20.8211L9.20068 25.8085L9.27808 25.8551L9.35549 25.8085L17.6336 20.8211L17.7248 20.7661L17.703 20.6618L15.235 8.88739L15.2283 8.85561L15.2091 8.82943L9.39902 0.911261ZM9.27808 22.1207L4.97162 9.20127L9.27808 3.31082L13.5845 9.20127L9.27808 22.1207ZM16.0509 20.0533L10.4236 23.4392L14.3341 11.7554L16.0509 20.0533ZM8.13257 23.4392L2.50526 20.0533L4.22207 11.7554L8.13257 23.4392Z" fill="#1792FF" stroke="#1792FF" stroke-width="0.3"/>
</svg>
