<svg width="25" height="28" viewBox="0 0 25 28" fill="none" xmlns="http://www.w3.org/2000/svg">
<path d="M12.3066 23.7333V27L15.1417 25.4333V22.1L12.3066 23.7333Z" fill="#1892FF"/>
<path d="M20.7456 9.23325V12.4999L23.564 10.9332V7.59991L20.7456 9.23325Z" fill="#1892FF"/>
<path d="M9.48828 12.4167V15.6834L12.3067 14.1167V10.7834L9.48828 12.4167Z" fill="#1892FF"/>
<path d="M3.98535 18.9L12.3237 23.7833L15.1588 22.2167L6.82041 17.2667L3.98535 18.9Z" fill="white"/>
<path d="M20.7122 9.1L23.5305 7.53333L15.042 2.46667H14.992L12.3404 1L3.98533 5.91667L3.90195 5.85L1.06689 7.48333L9.42197 12.5667L12.257 11L6.6703 7.56666L12.4738 4.18333L20.7122 9.1Z" fill="white"/>
<path d="M3.83496 12.3167V18.9167L6.67002 17.35V14.0167L3.83496 12.3167Z" fill="#1892FF"/>
<path d="M6.66992 7.60002L9.53833 9.20002L12.4067 7.50002V4.16669L6.66992 7.60002Z" fill="#1892FF"/>
<path d="M12.307 26.9999V23.7333L3.83517 18.9166V12.3166L9.45525 15.6999L9.4886 12.4166L1.0835 7.53326V20.5333L12.307 26.9999Z" fill="#A4D8FF"/>
<path d="M12.4067 4.16669V7.56668L20.7451 12.3667V9.23335L12.4067 4.16669Z" fill="#A4D8FF"/>
<path d="M12.2569 1L1.0835 7.53333V20.5333L12.307 27L15.142 25.4333V22.1L6.63687 17.2V14.0667L9.45525 15.7L12.3237 14V10.7833L9.4886 9.1L12.357 7.56666L20.7288 12.3667L23.6305 10.75V7.51666L12.2569 1Z" stroke="black" stroke-miterlimit="10" stroke-linejoin="round"/>
<path d="M12.4067 7.50003V4.35004" stroke="black" stroke-miterlimit="10"/>
<path d="M15.1587 9.21669V5.88336" stroke="black" stroke-miterlimit="10"/>
<path d="M17.9434 10.8833V7.54999" stroke="black" stroke-miterlimit="10"/>
<path d="M20.6953 12.3833V9.21667" stroke="white" stroke-miterlimit="10" stroke-linecap="round"/>
<path d="M9.47168 15.7333V12.4" stroke="black" stroke-miterlimit="10"/>
<path d="M9.47168 9.11662V5.93329" stroke="black" stroke-miterlimit="10"/>
<path d="M9.47168 25.4167V22.2" stroke="black" stroke-miterlimit="10"/>
<path d="M6.63672 23.8167V20.4833" stroke="black" stroke-miterlimit="10"/>
<path d="M20.7951 5.91663L17.9434 7.58329" stroke="black" stroke-miterlimit="10"/>
<path d="M12.4235 20.5833L9.57178 22.2499" stroke="black" stroke-miterlimit="10"/>
<path d="M9.60515 18.95L6.75342 20.6" stroke="black" stroke-miterlimit="10"/>
<path d="M6.75359 17.2833L3.90186 18.9333" stroke="black" stroke-miterlimit="10"/>
<path d="M6.61987 14.0166L3.75146 15.6833" stroke="black" stroke-miterlimit="10"/>
<path d="M9.42174 9.16663L6.63672 10.7833V14.15" stroke="black" stroke-miterlimit="10"/>
<path d="M17.9438 4.31665L15.2422 5.89998" stroke="black" stroke-miterlimit="10"/>
<path d="M15.0921 2.56671L12.207 4.28338" stroke="black" stroke-miterlimit="10"/>
<path d="M9.62207 2.54999L12.4905 4.26665" stroke="black" stroke-miterlimit="10"/>
<path d="M6.63672 4.21661L9.5218 5.93328" stroke="black" stroke-miterlimit="10"/>
<path d="M1 13.9167L3.88508 15.6334" stroke="black" stroke-miterlimit="10"/>
<path d="M3.85156 18.9L4.01833 19.0166" stroke="black" stroke-miterlimit="10"/>
<path d="M1.1499 17.3L3.85154 18.9" stroke="black" stroke-miterlimit="10"/>
<path d="M6.68701 7.56668L12.4071 4.16669L20.6955 9.23335L23.6807 7.51668" stroke="white" stroke-miterlimit="10" stroke-linecap="round" stroke-linejoin="round"/>
<path d="M3.96875 5.88336L9.48877 9.10003" stroke="black" stroke-miterlimit="10"/>
<path d="M3.88525 18.8166V22.2333" stroke="black" stroke-miterlimit="10"/>
<path d="M6.77034 7.56665L3.88525 9.19998V12.4" stroke="black" stroke-miterlimit="10"/>
<path d="M1.1167 7.46661L9.4551 12.5166L12.3735 10.8333" stroke="white" stroke-miterlimit="10" stroke-linecap="round" stroke-linejoin="round"/>
<path d="M12.307 27V23.7333L3.88525 18.8166V12.4166" stroke="white" stroke-miterlimit="10" stroke-linecap="round" stroke-linejoin="round"/>
<path d="M12.3066 23.7333L15.1417 22.1" stroke="white" stroke-miterlimit="10" stroke-linecap="round"/>
<path d="M6.58699 14.0499L1.05029 10.7" stroke="black" stroke-miterlimit="10"/>
</svg>
