<svg width="119" height="37" viewBox="0 0 119 37" fill="none" xmlns="http://www.w3.org/2000/svg">
<path d="M50.291 15.3388V12.8772H45.8244V11.5732H49.2663V9.31116H45.8244V8.48618H50.2121V6.02456H43V15.3388H50.291Z" fill="white"/>
<path d="M58.5244 8.47288H55.7525V9.24463C55.3453 8.61924 54.7278 8.2999 53.9002 8.2999C53.0463 8.2999 52.3238 8.64585 51.7589 9.32446C51.194 10.0031 50.905 10.868 50.905 11.9058C50.905 12.9437 51.194 13.8086 51.7589 14.4872C52.3238 15.1658 53.0463 15.5118 53.9002 15.5118C54.7278 15.5118 55.3453 15.1924 55.7525 14.567V18H58.5244V8.47288ZM55.7919 12.6776C55.5949 13.0102 55.2533 13.1832 54.7541 13.1832C54.0841 13.1832 53.6375 12.6111 53.6375 11.9058C53.6375 11.2006 54.0841 10.6285 54.7541 10.6285C55.2402 10.6285 55.5949 10.7881 55.7919 11.1208V12.6776Z" fill="white"/>
<path d="M63.9554 12.6909C63.7452 12.9437 63.4824 13.0635 63.1803 13.0635C62.7993 13.0635 62.4972 12.7973 62.4972 12.2252V8.47288H59.7253V12.824C59.7253 14.5138 60.5135 15.5118 61.9717 15.5118C62.3921 15.5118 62.7862 15.4053 63.154 15.1791C63.535 14.9529 63.7977 14.7134 63.9554 14.4606V15.3388H66.7141V8.47288H63.9554V12.6909Z" fill="white"/>
<path d="M70.8397 15.3388V8.47288H68.0678V15.3388H70.8397ZM69.4603 8.15353C70.3405 8.15353 71.0105 7.46162 71.0105 6.57011C71.0105 6.13101 70.8528 5.77175 70.5507 5.46571C70.2485 5.15967 69.8938 5 69.4603 5C69.0268 5 68.659 5.15967 68.3568 5.46571C68.0547 5.77175 67.9102 6.13101 67.9102 6.57011C67.9102 7.00921 68.0547 7.39509 68.3568 7.70113C68.659 8.00716 69.0268 8.15353 69.4603 8.15353Z" fill="white"/>
<path d="M74.2469 15.5118C74.838 15.5118 75.2978 15.4186 75.6525 15.2456V13.1034C75.5606 13.1433 75.4555 13.1699 75.3241 13.1699C75.1533 13.1699 74.9694 13.0635 74.9694 12.7973V6.02456H72.2107V13.4227C72.2107 14.8199 72.8938 15.5118 74.2469 15.5118Z" fill="white"/>
<path d="M79.4993 15.3388V8.47288H76.7274V15.3388H79.4993ZM78.1199 8.15353C79.0001 8.15353 79.67 7.46162 79.67 6.57011C79.67 6.13101 79.5124 5.77175 79.2103 5.46571C78.9081 5.15967 78.5534 5 78.1199 5C77.6864 5 77.3185 5.15967 77.0164 5.46571C76.7142 5.77175 76.5697 6.13101 76.5697 6.57011C76.5697 7.00921 76.7142 7.39509 77.0164 7.70113C77.3185 8.00716 77.6864 8.15353 78.1199 8.15353Z" fill="white"/>
<path d="M80.8702 15.3388H83.6421V14.567C84.0493 15.1924 84.6668 15.5118 85.4944 15.5118C86.3483 15.5118 87.0708 15.1658 87.6357 14.4872C88.2006 13.8086 88.4896 12.9437 88.4896 11.9058C88.4896 10.868 88.2006 10.0031 87.6357 9.32446C87.0708 8.64585 86.3483 8.2999 85.4944 8.2999C84.6668 8.2999 84.0493 8.61924 83.6421 9.24463V6.02456H80.8702V15.3388ZM83.6027 11.1341C83.7997 10.8014 84.1413 10.6285 84.6405 10.6285C85.3105 10.6285 85.7571 11.2006 85.7571 11.9058C85.7571 12.6111 85.3105 13.1832 84.6405 13.1832C84.1544 13.1832 83.7997 13.0235 83.6027 12.6909V11.1341Z" fill="white"/>
<path d="M92.1474 15.3388V11.4667C92.5152 11.0676 93.067 10.868 93.8027 10.868C94.0785 10.868 94.3544 10.9079 94.6303 10.9744V8.33982C94.5383 8.3132 94.4069 8.2999 94.2624 8.2999C93.7895 8.2999 93.356 8.44626 92.9488 8.72569C92.5415 9.00512 92.2788 9.28454 92.1474 9.56397V8.47288H89.3887V15.3388H92.1474Z" fill="white"/>
<path d="M98.4092 15.3388V8.47288H95.6373V15.3388H98.4092ZM97.0298 8.15353C97.91 8.15353 98.58 7.46162 98.58 6.57011C98.58 6.13101 98.4223 5.77175 98.1202 5.46571C97.818 5.15967 97.4633 5 97.0298 5C96.5963 5 96.2285 5.15967 95.9263 5.46571C95.6242 5.77175 95.4797 6.13101 95.4797 6.57011C95.4797 7.00921 95.6242 7.39509 95.9263 7.70113C96.2285 8.00716 96.5963 8.15353 97.0298 8.15353Z" fill="white"/>
<path d="M103.892 12.6909C103.682 12.9437 103.419 13.0635 103.117 13.0635C102.736 13.0635 102.434 12.7973 102.434 12.2252V8.47288H99.6619V12.824C99.6619 14.5138 100.45 15.5118 101.908 15.5118C102.329 15.5118 102.723 15.4053 103.091 15.1791C103.472 14.9529 103.734 14.7134 103.892 14.4606V15.3388H106.651V8.47288H103.892V12.6909Z" fill="white"/>
<path d="M110.724 15.3388V11.1607C110.921 10.8813 111.17 10.7349 111.499 10.7349C111.906 10.7349 112.103 11.0143 112.103 11.5732V15.3388H114.875V11.1341C115.046 10.868 115.295 10.7349 115.624 10.7349C116.031 10.7349 116.228 11.0143 116.228 11.5732V15.3388H119V11.0542C119 10.1494 118.777 9.47083 118.317 9.00512C117.857 8.53941 117.305 8.2999 116.635 8.2999C115.729 8.2999 114.862 8.77891 114.494 9.4043C114.139 8.67247 113.535 8.2999 112.681 8.2999C111.84 8.2999 111.039 8.81883 110.724 9.36438V8.47288H107.965V15.3388H110.724Z" fill="white"/>
<path d="M44.8855 30.0282L45.9139 27.09L46.9523 30.0282H48.1704L49.8778 25.1182H48.4799L47.5114 28.0174L46.503 25.0987H45.3748L44.3963 28.0174L43.4078 25.1182H42L43.6874 30.0282H44.8855Z" fill="white"/>
<path d="M52.7348 29.9892V25.1182H51.327V29.9892H52.7348ZM51.1872 23.8297C51.1872 24.2885 51.5567 24.6497 52.0259 24.6497C52.4952 24.6497 52.8646 24.2885 52.8646 23.8297C52.8646 23.3612 52.4952 23 52.0259 23C51.5567 23 51.1872 23.3612 51.1872 23.8297Z" fill="white"/>
<path d="M56.6984 30.1161C57.4172 30.1161 57.9664 29.872 58.3358 29.3937V29.9892H59.7436V23.1562H58.3358V25.7137C57.9464 25.2354 57.4073 24.9913 56.6984 24.9913C56.0194 24.9913 55.4603 25.2354 55.011 25.7332C54.5717 26.2213 54.352 26.8265 54.352 27.5488C54.352 28.2809 54.5717 28.8861 55.011 29.3839C55.4603 29.872 56.0194 30.1161 56.6984 30.1161ZM57.0977 28.9154C56.7083 28.9154 56.3789 28.7885 56.1292 28.5249C55.8796 28.2614 55.7498 27.9393 55.7498 27.5488C55.7498 27.1681 55.8796 26.846 56.1292 26.5824C56.3789 26.3189 56.7083 26.192 57.0977 26.192C57.6469 26.192 58.1062 26.4946 58.3358 26.9143V28.1833C58.1062 28.603 57.6469 28.9154 57.0977 28.9154Z" fill="white"/>
<path d="M65.2504 25.6844C64.861 25.2256 64.3119 24.9913 63.603 24.9913C62.924 24.9913 62.3649 25.2256 61.9356 25.6941C61.5062 26.1627 61.2866 26.7386 61.2866 27.4317C61.2866 28.1247 61.5062 28.7104 61.9356 29.179C62.3649 29.6475 62.924 29.8818 63.603 29.8818C64.3119 29.8818 64.861 29.6475 65.2504 29.1887V29.4913C65.2504 30.526 64.3917 30.8091 63.6229 30.8091C62.954 30.8091 62.3449 30.6529 61.8157 30.3406V31.5803C62.305 31.8633 62.954 32 63.7727 32C65.1805 32 66.6582 31.2093 66.6582 29.423V25.1182H65.2504V25.6844ZM64.0123 28.6909C63.2435 28.6909 62.6944 28.154 62.6944 27.4414C62.6944 26.7289 63.2236 26.192 64.0123 26.192C64.5615 26.192 65.0208 26.4751 65.2504 26.8557V28.0271C65.0208 28.4078 64.5615 28.6909 64.0123 28.6909Z" fill="white"/>
<path d="M70.9186 30.1161C71.7373 30.1161 72.3663 29.9501 72.8156 29.6182V28.5152C72.3064 28.7983 71.7772 28.9447 71.2181 28.9447C70.3395 28.9447 69.7005 28.5933 69.5507 27.9295H73.1251V27.5683C73.1251 26.846 72.9055 26.2408 72.4761 25.7429C72.0468 25.2451 71.4777 24.9913 70.7488 24.9913C69.98 24.9913 69.351 25.2354 68.8717 25.7332C68.3925 26.2213 68.1529 26.8265 68.1529 27.5488C68.1529 28.32 68.4224 28.9447 68.9516 29.4132C69.4808 29.8818 70.1398 30.1161 70.9186 30.1161ZM69.5507 27.051C69.6206 26.4751 70.0499 26.0748 70.6889 26.0748C71.3179 26.0748 71.7073 26.5141 71.7373 27.051H69.5507Z" fill="white"/>
<path d="M75.1744 28.4761C75.1744 29.5694 75.7135 30.1161 76.8019 30.1161C77.3111 30.1161 77.7005 30.0282 77.99 29.8525V28.7104C77.7504 28.8275 77.5108 28.8861 77.2611 28.8861C76.7819 28.8861 76.5822 28.6811 76.5822 28.2028V26.2701H78V25.1182H76.5822V23.7809H75.1744V25.1182H74.1959V26.2701H75.1744V28.4761Z" fill="white"/>
<path d="M16.2207 31.6025V36L20.0371 33.891V29.4038L16.2207 31.6025Z" fill="#1892FF"/>
<path d="M27.5801 12.0833V16.4807L31.374 14.3718V9.88458L27.5801 12.0833Z" fill="#1892FF"/>
<path d="M12.4268 16.3686V20.766L16.2207 18.657V14.1699L12.4268 16.3686Z" fill="#1892FF"/>
<path d="M5.01855 25.0961L16.2433 31.6698L20.0597 29.5609L8.83497 22.8974L5.01855 25.0961Z" fill="white"/>
<path d="M27.5354 11.9038L31.3294 9.79487L19.9025 2.97436H19.8352L16.2657 1L5.01851 7.61859L4.90626 7.52884L1.08984 9.72756L12.3371 16.5705L16.1535 14.4615L8.63289 9.83974L16.4453 5.28525L27.5354 11.9038Z" fill="white"/>
<path d="M4.81641 16.2339V25.1186L8.63283 23.0096V18.5224L4.81641 16.2339Z" fill="#1892FF"/>
<path d="M8.63281 9.88461L12.4941 12.0385L16.3554 9.74999V5.26282L8.63281 9.88461Z" fill="#1892FF"/>
<path d="M16.2208 35.9999V31.6025L4.81648 25.1185V16.2339L12.382 20.7884L12.4269 16.3685L1.1123 9.7948V27.2948L16.2208 35.9999Z" fill="#A4D8FF"/>
<path d="M16.3555 5.26282V9.83974L27.5802 16.3013V12.0833L16.3555 5.26282Z" fill="#A4D8FF"/>
<path d="M16.1535 1L1.1123 9.79487V27.2949L16.2208 36L20.0373 33.891V29.4038L8.588 22.8077V18.5897L12.382 20.7885L16.2433 18.5V14.1699L12.4269 11.9038L16.2882 9.83974L27.5578 16.3013L31.4641 14.125V9.77243L16.1535 1Z" stroke="black" stroke-miterlimit="10" stroke-linejoin="round"/>
<path d="M16.3555 9.74996V5.50958" stroke="black" stroke-miterlimit="10"/>
<path d="M20.0596 12.0608V7.57367" stroke="black" stroke-miterlimit="10"/>
<path d="M23.8086 14.3045V9.81732" stroke="black" stroke-miterlimit="10"/>
<path d="M27.5127 16.3237V12.0609" stroke="white" stroke-miterlimit="10" stroke-linecap="round"/>
<path d="M12.4043 20.8333V16.3461" stroke="black" stroke-miterlimit="10"/>
<path d="M12.4043 11.9262V7.64099" stroke="black" stroke-miterlimit="10"/>
<path d="M12.4043 33.8686V29.5385" stroke="black" stroke-miterlimit="10"/>
<path d="M8.58789 31.7147V27.2275" stroke="black" stroke-miterlimit="10"/>
<path d="M27.6475 7.61859L23.8086 9.86218" stroke="black" stroke-miterlimit="10"/>
<path d="M16.3779 27.3621L12.5391 29.6057" stroke="black" stroke-miterlimit="10"/>
<path d="M12.584 25.1635L8.74512 27.3846" stroke="black" stroke-miterlimit="10"/>
<path d="M8.74512 22.9198L4.90625 25.141" stroke="black" stroke-miterlimit="10"/>
<path d="M8.56542 18.5223L4.7041 20.7659" stroke="black" stroke-miterlimit="10"/>
<path d="M12.337 11.9936L8.58789 14.1699V18.7019" stroke="black" stroke-miterlimit="10"/>
<path d="M23.8087 5.46472L20.1719 7.59613" stroke="black" stroke-miterlimit="10"/>
<path d="M19.9697 3.10895L16.0859 5.41984" stroke="black" stroke-miterlimit="10"/>
<path d="M12.6064 3.08649L16.4678 5.39738" stroke="black" stroke-miterlimit="10"/>
<path d="M8.58789 5.33014L12.4717 7.64104" stroke="black" stroke-miterlimit="10"/>
<path d="M1 18.3878L4.88377 20.6987" stroke="black" stroke-miterlimit="10"/>
<path d="M4.83887 25.0961L5.06336 25.2532" stroke="black" stroke-miterlimit="10"/>
<path d="M1.20215 22.9423L4.83897 25.0961" stroke="black" stroke-miterlimit="10"/>
<path d="M8.65527 9.83974L16.3555 5.26282L27.5129 12.0833L31.5313 9.77243" stroke="white" stroke-miterlimit="10" stroke-linecap="round" stroke-linejoin="round"/>
<path d="M4.99609 7.57367L12.4269 11.9038" stroke="black" stroke-miterlimit="10"/>
<path d="M4.88379 24.9839V29.5833" stroke="black" stroke-miterlimit="10"/>
<path d="M8.76756 9.83972L4.88379 12.0384V16.3461" stroke="black" stroke-miterlimit="10"/>
<path d="M1.15723 9.70508L12.382 16.5032L16.3107 14.2371" stroke="white" stroke-miterlimit="10" stroke-linecap="round" stroke-linejoin="round"/>
<path d="M16.2208 35.9999V31.6025L4.88379 24.9839V16.3685" stroke="white" stroke-miterlimit="10" stroke-linecap="round" stroke-linejoin="round"/>
<path d="M16.2207 31.6025L20.0371 29.4038" stroke="white" stroke-miterlimit="10" stroke-linecap="round"/>
<path d="M8.52063 18.5673L1.06738 14.0577" stroke="black" stroke-miterlimit="10"/>
</svg>
